<?xml version="1.0" encoding="utf-8"?>
<!-- Generator: Adobe Illustrator 25.0.0, SVG Export Plug-In . SVG Version: 6.00 Build 0)  -->
<svg version="1.1" id="illustration" xmlns="http://www.w3.org/2000/svg" xmlns:xlink="http://www.w3.org/1999/xlink" x="0px"
	 y="0px" viewBox="0 0 1600 1200" style="enable-background:new 0 0 1600 1200;" xml:space="preserve">
<style type="text/css">
	.st0{fill:#EAF2FF;}
	.st1{fill:none;stroke:#000000;stroke-miterlimit:10;}
	.st2{fill:#61B566;}
	.st3{fill:#6CD376;}
	.st4{fill:none;stroke:#45A047;stroke-miterlimit:10;}
	.st5{fill:#001149;}
	.st6{fill:#05CDCD;}
	.st7{fill:#FFFFFF;}
	.st8{fill:#FF6666;}
	.st9{fill:#FFFFFF;stroke:#000000;stroke-miterlimit:10;}
	.st10{fill:#3B3BA3;}
	.st11{opacity:0.75;fill:#00A99D;}
	.st12{fill:#FCCB42;}
	.st13{fill:#FFC945;}
	.st14{fill:#001145;}
	.st15{fill:none;stroke:#020202;stroke-miterlimit:10;}
	.st16{fill:#96BBFF;}
	.st17{fill:none;stroke:#FFFFFF;stroke-miterlimit:10;}
	.st18{fill:#FF4C8B;}
	.st19{fill:#0D005F;}
	.st20{fill:#6585FF;}
	.st21{opacity:0.49;}
	.st22{stroke:#000000;stroke-miterlimit:10;}
	.st23{fill:#FFFFFF;stroke:#020202;stroke-miterlimit:10;}
	.st24{fill:#AFC9F9;stroke:#020202;stroke-miterlimit:10;}
	.st25{fill:#6786E3;stroke:#050505;stroke-miterlimit:10;}
	.st26{fill:#5DD7E4;}
	.st27{fill:#FFB225;stroke:#020202;stroke-miterlimit:10;}
	.st28{fill:none;stroke:#070707;stroke-miterlimit:10;}
	.st29{fill:#471CCE;}
	.st30{fill:none;stroke:#FFFDFD;stroke-miterlimit:10;}
	.st31{fill:none;stroke:#895675;stroke-miterlimit:10;}
	.st32{fill:#77103F;}
	.st33{fill:#F9AB46;}
	.st34{fill:#F9AB46;stroke:#FFFFFF;stroke-miterlimit:10;}
	.st35{fill:#FD4E8F;}
	.st36{fill:#FE6666;}
	.st37{fill:#000033;}
	.st38{fill:#DED8FA;}
	.st39{opacity:0.07;fill:#232323;}
	.st40{fill:#E45684;}
</style>
<g>
	<path id="background" class="st0" d="M319.81,977.87c0,0-52.15-229.25,50.52-354.62c128.11-156.42,266.57-114.89,389.4-281.28
		s360.65-137.34,463.88,43.58s36.59,592.94,36.59,592.94L319.81,977.87z"/>
	<path id="line" class="st1" d="M138.66,976.56c13.72,0,1303.47,1.92,1303.47,1.92"/>
	<g id="plant">
		<path class="st2" d="M1128.75,891.57c0,0,22.67,17.58,27.02,39.44c4.36,21.86,42.28,32.79,42.28,32.79l3.92,1.9l-3.49-17.58
			C1198.49,948.11,1187.29,879.89,1128.75,891.57z"/>
		<path class="st3" d="M1207.89,946.97c0.21,2.39,1.46,4.56,3.44,5.61c1.87,0.99,4.1,1.17,5.43-2.21
			c2.62-6.65,6.54-49.42,14.82-74.6c6.21-18.88,20.36-62.67,1.78-78.13c-22.6-18.81-46.48,18.19-45.41,40.27
			c1.07,22.14,6.32,44.62,11.81,65.9C1203.25,917.34,1207.09,937.64,1207.89,946.97z"/>
		<path class="st3" d="M1222.46,952.12c-0.05,1.51,0.37,3.01,1.27,4.16c1.29,1.66,3.46,3.43,6.1,1.7
			c15.39-10.07,20.06-31.6,35.7-42.24c12.44-8.47,29.83-16.41,38.84-29.51c6.54-9.5,17.87-53.22-15.26-46.57
			C1256.61,846.19,1223.68,915.41,1222.46,952.12z"/>
		<path class="st2" d="M1217.2,813.49c-10.44,31.71-4.48,136.6-4.48,136.6"/>
		<path class="st2" d="M1226.15,954.97c0,0,35.8-66.67,65.63-91.07"/>
		<path class="st4" d="M1134.76,890.3c0,0,32.54,16.89,39.2,37.17c6.62,20.15,27.54,37.48,27.54,37.48s2.99,6.11,4.11,12.13"/>
		<path class="st3" d="M1197.75,944.95c-1.88-7.87-21.42-85.6-72.95-98.63c-2.8-0.71-42.01-10.57-56.16,11.05
			c-4.39,6.71-5.69,12.91-4.83,18.35c2.39,15.27,27.85,19.69,37.02,21.44c33.84,6.47,45.66-7.88,64.4,0.09
			C1175.01,901.41,1188.22,912.33,1197.75,944.95z"/>
		<line class="st4" x1="1212.78" y1="951.99" x2="1212.93" y2="977"/>
		<path class="st4" d="M1225.4,956.32c0,0-8.14,13.27-10.61,20.52"/>
	</g>
	<g id="data_2">
		<path class="st5" d="M1145.67,433.34h-80.72c-1.17,0-2.12-0.95-2.12-2.12v-77.18c0-1.17,0.95-2.12,2.12-2.12h80.72
			c1.17,0,2.12,0.95,2.12,2.12v77.18C1147.78,432.39,1146.84,433.34,1145.67,433.34z"/>
		<rect x="1072.74" y="395.11" class="st6" width="12.04" height="38.23"/>
		<rect x="1097.81" y="389.45" class="st7" width="12.04" height="43.89"/>
		<rect x="1123" y="378.83" class="st8" width="11.33" height="54.51"/>
		<path class="st9" d="M1196.28,373.16h-59.47c-7.62,0-13.81-6.18-13.81-13.81v0c0-7.62,6.18-13.81,13.81-13.81h59.47
			c7.62,0,13.81,6.18,13.81,13.81v0C1210.08,366.98,1203.9,373.16,1196.28,373.16z"/>
		<ellipse class="st10" cx="1153.14" cy="360.35" rx="3.4" ry="3.63"/>
		<ellipse class="st10" cx="1183.96" cy="360.35" rx="3.28" ry="3.16"/>
		<circle class="st10" cx="1169.13" cy="360.35" r="3.28"/>
	</g>
	<g id="watch">
		<path class="st9" d="M978.46,429.24c-0.83,27.81-23.47,50.08-51.28,50.08c-27.8,0-50.44-22.27-51.27-50.08
			c0.82-27.8,23.47-50.09,51.27-50.09C954.99,379.15,977.64,401.44,978.46,429.24z"/>
		<path class="st11" d="M978.49,430.82c0,28.54-22.97,51.68-51.31,51.68c-28.33,0-51.3-23.14-51.3-51.68c0-0.53,0.01-1.06,0.03-1.58
			c0.83,27.81,23.47,50.08,51.27,50.08c27.81,0,50.45-22.27,51.28-50.08C978.48,429.76,978.49,430.29,978.49,430.82z"/>
		<polyline class="st1" points="922.05,406.03 924.98,436.81 944.77,447.07 		"/>
	</g>
	<g id="boy_2">
		<path class="st12" d="M874.92,771.28l46.83,3.73c5.16,0.41,9.75,3.44,12.15,8.03l72.53,138.49c1.11,2.12,4.25,1.79,4.89-0.52
			l26.16-93.82l46.33,0.8l1.51,148.49l-118.58,1.5l-99.01-206.7H874.92z"/>
		<path class="st13" d="M773.08,765.68L692.4,951.76l-8.39,26.64l300.75-2.83l-84.67-201.82
			C900.09,773.76,805.03,768.11,773.08,765.68z"/>
		<path class="st13" d="M798.9,767.36c0,0-50.28-1.76-57.48,2.56c-7.2,4.32-124.78,159.34-134.86,185.26
			c-5.4,13.89-3.77,23.09-1.1,28.64c2.04,4.23,6.36,6.88,11.05,6.89l171.95,0.46c1.09,0,2.02-0.79,2.19-1.87
			c1.03-6.73,5.09-29.44,13.44-33.17c0.38-0.17,0.33-0.72-0.08-0.79l-92.16-16.97c-2.43-0.45-3.65-3.21-2.35-5.31l105.38-165.03
			L798.9,767.36z"/>
		<path class="st9" d="M944.4,674.88c0,0-22.24,75.15-66.13,83.57c0,0-6.01,16.23-0.6,25.25l1.45,2.07c1.55,2.22,0.91,5.3-1.43,6.68
			c-11.42,6.75-44.89,21.89-84.13-3.44c-2.47-1.6-3.41-4.76-2.18-7.44l32.9-71.37c0.23-0.49-0.11-1.05-0.65-1.07
			c-5.73-0.22-30.78-2.61-21.71-28.24c0,0,5.41-16.23,25.85-6.61c0,0,18.04-73.95,62.53-60.72
			C934.78,626.78,947.41,653.23,944.4,674.88z"/>
		<path class="st14" d="M827.77,674.27l6.19,7.32c0.23,0.27,0.63,0.28,0.88,0.03l17.94-18.51c0.48-0.5,1.25-0.6,1.84-0.23
			c3.34,2.09,14.1,8.41,17.64,5.37c4.21-3.61-6.61-16.23-6.61-16.23s23.45,29.46,40.88,25.25s28.86,1.8,37.88-2.4
			s23.45-27.05,13.83-36.07c-7.85-7.36-19.31-9.51-23.25-10.06c-0.73-0.1-1.22-0.81-1.05-1.53c1.38-5.92,5.52-29.13-14.47-29.31
			c-0.52,0-1-0.31-1.18-0.8c-1.83-4.92-13.36-29.58-52.03,2.01l-13.54,11.28c-0.49,0.41-1.22,0.36-1.65-0.11
			c-3.31-3.67-14.56-16.74-19.08-6.36c-4.07,9.34,0.85,12.79,2.58,13.92c0.29,0.19,0.18,0.63-0.15,0.68
			c-5.48,0.87-28.13,5.25-27.07,18.47c0.8,10.04,2.68,14.18,3.84,15.82c0.42,0.6,0.25,1.42-0.36,1.82
			c-2.39,1.57-6.94,5.19-4.68,8.81c3.01,4.81,4.21,7.82,4.21,7.82S822.36,669.46,827.77,674.27z"/>
		<path class="st1" d="M810.94,692.91l11.94,2.17c0.52,0.09,0.92-0.45,0.67-0.92l-3.59-6.66"/>
		<path class="st1" d="M851.74,755.4c0,0,13.47,6.89,26.95,3.13"/>
		<path class="st9" d="M790.82,989.5c0,0,59.03,2.54,59.03,1.69c0-0.85,3.11-29.37,3.11-29.37l-54.51-5.93
			C798.45,955.89,780.37,978.77,790.82,989.5z"/>
		<path class="st9" d="M1037.48,827.19c0-0.88-7.16-54.31-17.11-67.18c-9.94-12.86,15.5-6.72,19.3,7.31
			c3.8,14.03,8.77,11.7,9.65,6.72c0.49-2.8,0.22-5.84,0.23-8.66c0.01-4.73,0.03-9.46,0.25-14.18c0.18-3.89,0.43-7.83,1.25-11.65
			c0.56-2.63,1.42-6.62,4.87-5.99c0.44,0.08,0.89,0.16,1.32,0.32c2.37,0.87,3,3.73,3.2,5.96c0.58,6.72,0.58,9.94,0.58,9.94
			s1.01-14.25,5.21-14.09c5.58,0.21,6.48,7.37,6.48,10.59c0,0,2.63-10.53,7.02-8.19s5.85,11.11,4.97,18.71
			c-0.88,7.6-0.89,71.19-0.89,71.19L1037.48,827.19z"/>
		<path class="st15" d="M753.65,860.61l-45.44,64.63c-1.77,2.51-0.44,6.02,2.55,6.72l87.69,23.92"/>
		<path class="st15" d="M788.53,955.61c0,0-14.94,14.74-7.04,30.07"/>
		<line class="st15" x1="1040.45" y1="834.44" x2="1078.09" y2="834.99"/>
		<path class="st15" d="M783.8,796.76c0,0,55.59,46.9,100.76,2.61"/>
		<line class="st15" x1="905.41" y1="852.97" x2="969.83" y2="975.25"/>
		<line class="st9" x1="1072.56" y1="743.11" x2="1072" y2="764.14"/>
		<line class="st9" x1="1061.02" y1="749.78" x2="1060.93" y2="764.69"/>
	</g>
	<g id="girl_2">
		<ellipse class="st16" cx="434.7" cy="813.89" rx="138.56" ry="138.02"/>
		<g>
			<polyline class="st17" points="406.01,678.92 407.44,762.16 562.9,761.8 			"/>
			<path class="st17" d="M410.43,821.62c4.49,0,161.63,1.29,161.63,1.29"/>
			<line class="st17" x1="408.93" y1="830.32" x2="572.31" y2="830.91"/>
			<line class="st17" x1="314.6" y1="808.56" x2="365.51" y2="808.56"/>
			<line class="st17" x1="302.62" y1="828.87" x2="353.53" y2="828.87"/>
			<line class="st17" x1="337.06" y1="796.96" x2="336.55" y2="840.02"/>
			<line class="st17" x1="502.9" y1="761.38" x2="503.46" y2="781.56"/>
			<ellipse class="st17" cx="503.91" cy="783.95" rx="3.09" ry="3.26"/>
		</g>
		<line class="st1" x1="279.11" y1="906.5" x2="588.37" y2="907.9"/>
		<g>
			<path class="st18" d="M392.79,808.99l-46.57,12.55c-2.26,0.61-3.98,2.46-4.42,4.75l-15.45,80.16l205.42,0.87L483.9,800.68
				c-1.16-2.58-3.88-4.08-6.68-3.69L392.79,808.99z"/>
			<path class="st9" d="M426.44,716.33c0,0,31.91,40.65,29.28,52.89c0,0-4.28,6.42-9.94,10.24c-1.11,0.75-1.72,2.05-1.52,3.37
				l6.79,44.15c0.51,3.31-0.25,6.71-2.19,9.45c-6.78,9.58-25.1,28.26-52.38,1.77c-2.65-2.57-4.11-6.13-4.05-9.82l0.74-46.06
				c0.02-1.4-1.04-2.59-2.44-2.71c-5.69-0.48-18.99-3.33-15.88-19.58c0,0,3.5-7.87,10.49-8.3
				C385.36,751.74,379.24,706.72,426.44,716.33z"/>
			<path class="st19" d="M429.5,717.65c0,0-10.05,48.95-44.14,34.09c0,0-5.24-3.06-5.24-11.36c0,0-53.32,14.42-69.49-28.41
				s42.4-66.43,67.31-28.85c0,0,13.11,23.6,15.73,32.34C393.66,715.46,420.76,707.16,429.5,717.65z"/>
			<path class="st1" d="M391.47,772.28l4.99-0.29c1-0.06,1.5-1.24,0.84-2l-6.7-7.76"/>
			<path class="st1" d="M377.81,812.43c3.08,8.79,6.2,17.64,10.94,25.65c4.74,8.01,11.28,15.23,19.68,19.25
				c8,3.83,17.47,4.52,25.94,1.87s15.87-8.59,20.27-16.29c7.3-12.78,6.02-28.62,3.26-43.07"/>
			<path class="st1" d="M443.92,780.58c0,0-6.12,3.06-10.05,3.93"/>
			<line class="st1" x1="373.33" y1="860.62" x2="373.71" y2="906.34"/>
			<line class="st1" x1="478.38" y1="906.72" x2="474.6" y2="864.02"/>
			<path class="st9" d="M540.15,922.61h-91.21v-0.69c0-5.85,4.75-10.6,10.6-10.6h80.61V922.61z"/>
			<g>
				<path class="st9" d="M330.12,906.49c0.4,1.21-5.89,40.76-1.79,47.15c3.6,5.59,65.15-11.14,73.6-13.47
					c8.28-2.29,77.5-22.36,76.83-24.37c-0.66-2.02-2.71-2.49-5.23-3.04c-2.52-0.56,9.37,1.07,11.21-1.38
					c1.68-2.24-2.18-3.96-5.42-4.8c-0.21-0.06-0.21-0.35,0-0.41c1.69-0.42,5.21-1.45,4.68-2.69c-0.67-1.58-13.62-10.8-26.55-11.36
					c-0.66-0.03-1.32,0.07-1.95,0.26c-7.85,2.33-63.05,19.01-83.46,24.7c-0.36,0.1-0.72-0.15-0.75-0.53l-0.65-10.06l-38.63,0.24
					L330.12,906.49z"/>
				<path class="st1" d="M372.36,916.31c0,0-3.33-0.58-5.89,4.68"/>
				<path class="st9" d="M479.57,906.57c0,0-12.78-5.12-15.43-5.34"/>
				<line class="st9" x1="473.54" y1="912.74" x2="463.25" y2="909.41"/>
			</g>
		</g>
		<g>
			<polygon class="st9" points="515.38,835.54 489.2,923.09 608.24,924.31 635.52,837.37 			"/>
			
				<ellipse transform="matrix(0.2991 -0.9542 0.9542 0.2991 -441.5143 1164.9163)" class="st9" cx="572.17" cy="882.99" rx="13.89" ry="10.69"/>
			<line class="st9" x1="524.02" y1="835.37" x2="497.6" y2="922.29"/>
		</g>
	</g>
	<g id="girl_1">
		<ellipse class="st20" cx="1163.01" cy="582.46" rx="135.83" ry="133.8"/>
		<g>
			<polygon class="st21" points="1067.02,531.62 1070.89,609.09 1065.47,608.7 			"/>
			<rect x="979.22" y="493.25" class="st9" width="87.95" height="115.07"/>
			<line class="st1" x1="992.51" y1="517.47" x2="1052.49" y2="517.78"/>
			<line class="st1" x1="992.51" y1="528.8" x2="1052.49" y2="529.1"/>
			<line class="st1" x1="992.51" y1="540.73" x2="1052.49" y2="541.04"/>
			<line class="st1" x1="992.51" y1="552.06" x2="1052.49" y2="552.36"/>
			<line class="st1" x1="992.51" y1="561.54" x2="1052.49" y2="561.85"/>
			<line class="st1" x1="992.51" y1="572.87" x2="1052.49" y2="573.17"/>
			<line class="st1" x1="992.51" y1="582.68" x2="1052.49" y2="582.99"/>
			<line class="st1" x1="992.51" y1="592" x2="1052.49" y2="592.31"/>
		</g>
		<g>
			<path class="st22" d="M1135.84,542.97c0,0-1.04,15.6-8.67,19.76s-5.38,26.32,16.81,23.2c22.19-3.12,70.91,7.65,74.03-2.4
				c3.12-10.05,6.59-22.54-11.79-35.02c0,0-9.01,0-8.32-7.97c0.69-7.97-3.12-31.55-24.27-34.32c-21.15-2.77-32.24,1.39-38.48,7.28
				C1128.9,519.39,1125.44,533.26,1135.84,542.97z"/>
			<path class="st9" d="M1158.72,585.26l-17.33,0.69l-57.55,86.33l156.01-0.35c0,0-0.69-72.81-11.44-81.82c0,0-9.36-5.2-31.9-5.55
				S1158.72,585.26,1158.72,585.26z"/>
			<path class="st9" d="M1135.84,534.99c-1.12,1.89,4.16,33.98,11.79,36.4c7.63,2.43,13.17,1.73,13.17,1.73l-0.69,12.48
				c0,0,19.07,19.42,36.4-1.04l-11.09-32.94c0,0,13.87-7.63,5.55-15.95c0,0-3.81-5.2-11.79,1.73
				C1179.17,537.42,1163.23,488.88,1135.84,534.99z"/>
			<path class="st22" d="M1160.56,520.44c-0.2-0.44-0.8-0.5-1.06-0.1c-3.07,4.76-17.1,25.5-25.4,20.89
				c-9.36-5.2,10.4-31.2,24.27-28.08c13.87,3.12,21.84,12.13,20.46,22.88C1178.83,536.03,1170.42,542.76,1160.56,520.44z"/>
			<path class="st9" d="M1197.9,601.56l-5.2,70.73l33.98,0.69c-1.73-23.69-3.47-47.38-5.2-71.07c-3.22-0.92-7.74-1.82-13.17-1.73
				C1204.17,600.24,1200.64,600.86,1197.9,601.56z"/>
			<path class="st1" d="M1156,592.14c1.6,4.16,4.94,7.61,9.04,9.34c2.05,0.87,4.26,1.31,6.47,1.62c5.1,0.7,10.39,0.67,15.28-0.96
				c4.89-1.62,9.34-4.98,11.53-9.64"/>
			<path class="st1" d="M1185.17,537.96l-0.69,4.97c-0.1,0.7,0.5,1.3,1.2,1.21l2.12-0.27"/>
			<g>
				<path class="st9" d="M1095.27,600.52l2.31-10.89c0.07-0.32-0.1-0.64-0.4-0.76l-8.18-3.47c-1.7-0.72-2.87-2.3-3.08-4.13
					l-1.75-15.76c0,0-15.25-12.83-12.48-15.25s27.74,11.79,27.74,11.79s1.39-9.71,3.12-12.13c1.09-1.52,3.13-2.5,4.5-3.02
					c0.71-0.27,1.49,0.18,1.61,0.93c0.92,5.76,4.47,27.69,5.67,31.9c1.39,4.85,1.73,23.92,1.73,23.92h-22.19L1095.27,600.52z"/>
				<path class="st1" d="M1099.43,562.04c0,0-2.77,10.75-1.73,13.52c1.04,2.77,4.85,5.89,4.85,5.89"/>
				<path class="st9" d="M1075.83,575.3c0,0,8.89,7.8,10.7,6.71s2.36-3.81,2.36-3.81s4.71-1.27,4.17-4.17c0,0,3.81-1.45,3.08-3.81
					c0,0-13.42-9.97-14.51-9.07s-1.63,3.08-1.27,3.81c0,0-4.53,1.63-3.08,5.26C1077.28,570.22,1072.92,572.03,1075.83,575.3z"/>
				<line class="st9" x1="1077.28" y1="570.22" x2="1088.88" y2="578.2"/>
				<path class="st9" d="M1080.36,564.96c0.82,0.32,12.69,9.07,12.69,9.07"/>
			</g>
			<path class="st9" d="M1089.73,602.95l-14.21,68.99l42.64,0.35l3.47-67.26C1121.62,605.03,1109.83,597.75,1089.73,602.95z"/>
			<g>
				<path class="st9" d="M1201.84,600.3c0,0-5.99-18.48-13.48-22.71c-0.96-0.54-1.76-1.35-2.1-2.4c-0.49-1.5-0.5-3.48,2.29-4.27
					c2.76-0.78,5.71,0.42,7.35,2.78l2.89,4.18c0,0-3.6-24.36,4.98-24.36l2.21,0.55c0,0,0.55-8.03,4.71-6.37c0,0,1.66,0.55,1.94,4.15
					c0,0,4.15-2.49,6.09,2.49l0.28,5.26c0,0,2.77-2.77,3.32,0c0.55,2.77,0.83,29.89-2.21,41.24L1201.84,600.3z"/>
				<line class="st9" x1="1205.99" y1="554.08" x2="1206.15" y2="569.92"/>
				<line class="st9" x1="1212.63" y1="551.86" x2="1212.57" y2="568.72"/>
				<line class="st9" x1="1219" y1="559.61" x2="1218.58" y2="567.52"/>
			</g>
			<path class="st22" d="M1160.66,573.25c0,0,3.13-1.47,5.33-3.68"/>
		</g>
		<line class="st15" x1="1050.32" y1="672.49" x2="1291.24" y2="672.73"/>
		<g>
			<ellipse class="st17" cx="1254.97" cy="546.31" rx="6.89" ry="7.18"/>
			<rect x="1227.36" y="557.52" class="st17" width="65.17" height="7.67"/>
		</g>
		<g>
			<polyline class="st17" points="1099.32,465.52 1100.08,530.69 1035.68,532.22 			"/>
			<line class="st17" x1="1110.82" y1="460.15" x2="1110.82" y2="540.66"/>
		</g>
	</g>
	<g id="data">
		<path class="st23" d="M706.4,724.41l-2.08,2.64c5.31,3.73,11.74,5.91,18.68,5.91c18.2,0,32.95-15.02,32.95-33.55
			c0-18.11-14.08-32.86-31.7-33.53v35.72h-26.57l26.37,0.4L706.4,724.41z"/>
		<path class="st24" d="M690.13,701.61c0.67,10.56,6.13,19.79,14.19,25.44l2.08-2.64l17.65-22.4l-26.37-0.4H690.13z"/>
		<path class="st25" d="M690.06,699.42c0,0.74,0.02,1.47,0.07,2.19h34.12v-35.72c-0.41-0.02-0.82-0.03-1.24-0.03
			C704.81,665.86,690.06,680.88,690.06,699.42z"/>
	</g>
	<g id="chat_2">
		<path class="st6" d="M1230.04,750.89h-41.1c-5.49,0-9.94-4.45-9.94-9.94l0,0c0-5.49,4.45-9.94,9.94-9.94h41.1
			c5.49,0,9.94,4.45,9.94,9.94l0,0C1239.99,746.43,1235.53,750.89,1230.04,750.89z"/>
		<ellipse class="st7" cx="1196.17" cy="741.15" rx="3.05" ry="2.83"/>
		<ellipse class="st7" cx="1209.23" cy="741.15" rx="3.05" ry="2.83"/>
		<ellipse class="st7" cx="1222.74" cy="741.15" rx="3.05" ry="2.83"/>
	</g>
	<g id="boy_1">
		<ellipse class="st26" cx="629.16" cy="471.44" rx="141.05" ry="142.78"/>
		<g>
			<rect x="505.26" y="572.64" class="st9" width="66.47" height="78.51"/>
			<rect x="505.51" y="571.66" class="st16" width="65.77" height="19.19"/>
			
				<ellipse transform="matrix(0.9864 -0.1644 0.1644 0.9864 -93.9982 93.1909)" class="st13" cx="516" cy="614.47" rx="3.58" ry="3.72"/>
			
				<ellipse transform="matrix(0.9864 -0.1644 0.1644 0.9864 -97.2484 93.4599)" class="st13" cx="516" cy="634.24" rx="3.58" ry="3.72"/>
			<line class="st1" x1="513.57" y1="598.72" x2="562.28" y2="598.72"/>
			<line class="st1" x1="526.17" y1="613.04" x2="557.41" y2="613.33"/>
			<line class="st1" x1="529.04" y1="618.49" x2="544.23" y2="618.49"/>
			<line class="st1" x1="526.17" y1="632.67" x2="557.41" y2="632.95"/>
			<line class="st1" x1="529.04" y1="638.11" x2="544.23" y2="638.11"/>
		</g>
		<g>
			<path class="st13" d="M783.73,646.38h-23.51c-2.85,0-5.16-2.31-5.16-5.16v-20.18c0-2.85,2.31-5.16,5.16-5.16h23.51
				c2.85,0,5.16,2.31,5.16,5.16v20.18C788.89,644.07,786.58,646.38,783.73,646.38z"/>
			<g>
				<path d="M757.12,628.2c1.78,1.76,3.4,3.63,4.96,5.54c0.79,0.94,1.52,1.93,2.29,2.9c0.75,0.97,1.46,1.98,2.19,2.96l-2.59-0.27
					c1.49-1.59,3.01-3.15,4.56-4.68c1.56-1.51,3.13-3.03,4.77-4.47c0.8-0.74,1.63-1.45,2.47-2.15c0.82-0.71,1.67-1.41,2.53-2.09
					c1.71-1.37,3.46-2.69,5.33-3.9l0.14,0.14l-9.23,9.25c-3.07,3.09-6.15,6.17-9.26,9.21l-0.15,0.15l-0.11-0.17l-8.05-12.31
					L757.12,628.2z"/>
			</g>
		</g>
		<line class="st1" x1="477.8" y1="571.59" x2="773.68" y2="574.98"/>
		<g>
			<rect x="599.88" y="328.46" class="st9" width="16.12" height="4.8"/>
			<path class="st9" d="M616,334.01v3.67c0,1.77-1.43,3.21-3.2,3.21h-9.97c-1.63,0-2.95-1.32-2.95-2.95v-3.93H616z"/>
			<path class="st9" d="M611.15,342.68v0.05c0,1.66-1.34,3.01-3.01,3.01h-0.4c-1.66,0-3-1.35-3-3.01v-0.05
				c0-0.67,0.22-1.29,0.6-1.79h5.22C610.94,341.39,611.15,342.01,611.15,342.68z"/>
			<path class="st27" d="M624.28,306.02c0.47,6.06-2.14,11.54-6.44,15.01c-1.37,1.11-2.18,2.77-2.18,4.54v2.14H600.4v-1.35
				c0-1.5-0.79-2.91-2.1-3.64c-5.36-2.99-8.99-8.72-8.99-15.29c0-10.01,8.4-18.06,18.53-17.48
				C616.49,290.44,623.61,297.39,624.28,306.02z"/>
			<path class="st1" d="M606.36,327.19c0,0,0.72-12.18-0.57-14.61c-0.76-1.43-2.59-2.93-4.27-3.06c-2.37-0.19-0.92,3.75-0.28,4.77
				c1.59,2.53,4.61,3.22,7.42,3.02c2.93-0.21,5.34-1.95,6.44-4.67c0.54-1.33,1.41-5.59-0.57-6.11c-3.64-0.96-4.52,6.39-4.58,8.34
				c-0.14,4.58-0.14,13.04-0.14,13.04"/>
			<line class="st28" x1="604.19" y1="280.52" x2="599.65" y2="270.94"/>
			<line class="st28" x1="607.72" y1="279" x2="602.67" y2="266.4"/>
			<line class="st28" x1="631.57" y1="295.09" x2="640.64" y2="288.04"/>
			<line class="st28" x1="634.59" y1="298.12" x2="639.63" y2="296.1"/>
			<line class="st28" x1="579.52" y1="304.18" x2="568.86" y2="304.18"/>
			<path class="st28" d="M594.19,301.66c0,0,3.02-5.04,7.56-6.05"/>
		</g>
		<g>
			<path class="st29" d="M603.02,481.63l-34.87,2.38c-2.22,0.15-4.2,1.47-5.2,3.46l-42.97,85.94l195.37,1.31
				c0,0-34.06-90.05-35.84-90.91c-1.24-0.6-42.83-3.93-42.83-3.93L603.02,481.63z"/>
			<path class="st9" d="M604.33,476.38v10.05c0,2.51,1.44,4.81,3.71,5.87c9.06,4.23,32.56,12.17,46.11-11.11l-17.48-38.02
				C636.67,443.17,605.2,465.46,604.33,476.38z"/>
			<path class="st9" d="M569.36,414.32c0,0,8.3,63.81,39.77,62.06c0,0,17.48,0,27.54-33.22c0,0,16.61-8.3,13.11-20.54
				c-3.5-12.24-15.73-6.99-15.73-6.99S596.02,365.37,569.36,414.32z"/>
			<path class="st14" d="M564.83,408.83c-0.19,1.27,0.39,2.54,1.47,3.24c0.01,0.01,0.02,0.01,0.03,0.02
				c4.12,2.67,14.96,8.23,27.94,3.1c15.22-6.01,20.9-7.98,24.1,0.49c0.77,2.04,2.36,3.7,4.44,4.34c3.1,0.96,7.63,1.02,11.24-4.39
				c6.12-9.18,0-37.59-20.11-42.4C594.19,368.51,570.23,372.65,564.83,408.83z"/>
			<path class="st30" d="M649.94,520.89c0.7,0,6.95,17.62,8.34,19.01l1.62,34.54"/>
			<polyline class="st30" points="579.64,525.46 572.84,543.6 572.46,573.45 			"/>
			<path class="st1" d="M638.21,424.95l-1.83,3.36c-0.19,0.34,0.08,0.75,0.47,0.72l7.41-0.67"/>
			<g>
				<path class="st9" d="M526.21,546.55c-2.61,0.56-4.51,2.81-4.59,5.48c-0.32,10.68-0.84,40.1,3.15,39.53
					c4.87-0.7,2.78-2.09,2.78-2.09s0.93,8.81,7.88,8.11c0,0,2,4.81,6.01,3.43c0.3-0.1,0.62-0.24,0.94-0.42c0,0,4.17,9.74,9.97,3.71
					l-0.22-30.23c-0.01-0.85,0.66-1.55,1.51-1.59l7.81-0.33c1.04-0.04,1.86-0.88,1.89-1.92c0.17-5.36-0.31-20.75-11-23.42
					C543.11,544.51,532.21,545.26,526.21,546.55z"/>
				<line class="st9" x1="527.55" y1="589.48" x2="527.13" y2="572.88"/>
				<line class="st9" x1="535.43" y1="597.59" x2="534.94" y2="573.19"/>
				<line class="st9" x1="542.38" y1="600.6" x2="541.82" y2="573.51"/>
			</g>
		</g>
		<g>
			<g>
				<g>
					<rect x="492.94" y="451.35" class="st31" width="10.92" height="38"/>
					<rect x="523.87" y="440.81" class="st32" width="10.01" height="49.61"/>
					<rect x="509.3" y="449.25" class="st33" width="10.01" height="41.16"/>
					<rect x="539.34" y="446.07" class="st17" width="9.1" height="43.28"/>
					<line class="st17" x1="539.32" y1="457.48" x2="548.15" y2="457.48"/>
					<line class="st17" x1="539.32" y1="461.44" x2="548.15" y2="461.67"/>
				</g>
				<path class="st1" d="M495.07,493.03c1.07,0,57.54,0.36,57.54,0.36"/>
				<line class="st17" x1="486.26" y1="490.08" x2="556.89" y2="490.14"/>
			</g>
			<g>
				<g>
					
						<rect x="714.82" y="366.86" transform="matrix(-1 -4.489976e-11 4.489976e-11 -1 1440.551 771.7099)" class="st31" width="10.92" height="38"/>
					
						<rect x="684.79" y="356.32" transform="matrix(-1 -4.489221e-11 4.489221e-11 -1 1379.5919 762.2447)" class="st32" width="10.01" height="49.61"/>
					
						<rect x="699.36" y="364.76" transform="matrix(-1 -4.489221e-11 4.489221e-11 -1 1408.7363 770.6887)" class="st33" width="10.01" height="41.16"/>
					
						<rect x="670.23" y="361.58" transform="matrix(-1 -4.488333e-11 4.488333e-11 -1 1349.5671 766.4324)" class="st17" width="9.1" height="43.28"/>
					<line class="st17" x1="679.36" y1="372.99" x2="670.52" y2="372.99"/>
					<line class="st17" x1="679.36" y1="376.95" x2="670.52" y2="377.18"/>
				</g>
				<path class="st1" d="M659.69,405.55c1.98,0,98.48,1.11,98.48,1.11"/>
			</g>
			<g>
				<line class="st17" x1="686.11" y1="494.76" x2="767.77" y2="495.33"/>
				<rect x="694.1" y="461.64" class="st17" width="9.71" height="33.12"/>
				<rect x="711.23" y="451.93" class="st17" width="8" height="42.83"/>
				<rect x="726.08" y="469.06" class="st34" width="8.57" height="25.7"/>
			</g>
		</g>
		<circle class="st8" cx="751.82" cy="541.64" r="11.6"/>
	</g>
	<g id="round">
		<path class="st1" d="M335.14,416.53c1.82,3.73,4.42,8,8.64,8.2c4.62,0.22,7.66-4.55,9.45-8.72c1.79-4.18,4.2-9.08,8.79-9.66
			c4.93-0.62,8.6,4.18,11.08,8.39s6.06,9.04,11,8.54c3.8-0.38,6.42-3.86,8.11-7.22s3.15-7.11,6.35-9.16s8.73-0.82,9.03,2.91"/>
		<polygon class="st6" points="596.09,713.75 604.12,746.79 647.44,738.71 		"/>
		<polygon class="st1" points="591.42,715.9 599.44,748.95 642.77,740.87 		"/>
		<polygon class="st35" points="1215.15,1026.79 1244.63,1022.74 1239.27,1004.78 		"/>
		<path class="st1" d="M1361.86,739.81c1.14,3.91,2.33,7.92,4.57,11.07c2.25,3.16,5.82,5.32,9.19,4.33
			c5.51-1.61,7.28-9.81,11.27-14.63c4.44-5.36,12.33-5.95,17.29-1.28c2.35,2.21,3.99,5.31,6.19,7.73c2.2,2.42,5.42,4.14,8.16,2.72
			c4.74-2.45,5.33-12.54,10.5-12.62"/>
		<g id="angle">
			<polygon class="st36" points="1379.16,247.71 1357.34,228.08 1375.08,205.86 1396.9,225.5 			"/>
			<polygon class="st15" points="1373,249.35 1351.18,229.72 1368.92,207.5 1390.74,227.14 			"/>
			<polygon class="st6" points="243.54,985.37 256.4,993.28 269.26,1001.2 255.75,1009.04 242.25,1016.89 242.9,1001.13 			"/>
			<polygon class="st23" points="1388.34,542.17 1389.31,555.56 1390.28,568.94 1378.78,562.98 1367.27,557.02 1377.81,549.6 			"/>
			<ellipse class="st37" cx="444.32" cy="198.46" rx="8.23" ry="8.89"/>
			<ellipse class="st8" cx="190.03" cy="519.69" rx="14.76" ry="15.31"/>
			<ellipse class="st15" cx="187.82" cy="514.69" rx="14.76" ry="15.31"/>
			<polygon class="st15" points="239.59,991.08 252.45,998.99 265.3,1006.91 251.8,1014.75 238.3,1022.6 238.95,1006.84 			"/>
		</g>
		<ellipse class="st38" cx="783.4" cy="690.3" rx="8.11" ry="8.93"/>
		<ellipse class="st1" cx="234.77" cy="536.9" rx="4.06" ry="4.46"/>
		<ellipse class="st1" cx="453.79" cy="459.83" rx="4.68" ry="5.1"/>
		<ellipse cx="995.01" cy="769.22" rx="4.06" ry="4.15"/>
		<ellipse class="st1" cx="932.62" cy="283.79" rx="4.06" ry="4.15"/>
		<ellipse class="st1" cx="1303.16" cy="702.35" rx="4.06" ry="4.15"/>
		<ellipse class="st6" cx="234.16" cy="671.31" rx="5.88" ry="6.9"/>
		<ellipse class="st6" cx="1012.42" cy="302.7" rx="5.88" ry="6.9"/>
		<ellipse class="st1" cx="893.03" cy="532.59" rx="5.01" ry="5.27"/>
		<ellipse class="st1" cx="561.76" cy="1003.89" rx="3.95" ry="4.22"/>
		<ellipse class="st1" cx="1320.41" cy="960.98" rx="3.95" ry="4.22"/>
		<ellipse class="st1" cx="264.55" cy="876.6" rx="4.37" ry="4.78"/>
		<ellipse class="st1" cx="552.99" cy="321.64" rx="8.11" ry="8.29"/>
	</g>
	<g id="laptop">
		<path class="st9" d="M1076.08,862.63l-36.84,128.05H839.93l41.5-132.58c0.78-2.8,3-4.68,5.49-4.64l185.54,3.03
			C1075.11,856.54,1076.95,859.65,1076.08,862.63z"/>
		
			<ellipse transform="matrix(0.4479 -0.8941 0.8941 0.4479 -286.4048 1384.2214)" class="st9" cx="977.68" cy="924.03" rx="17.63" ry="14.3"/>
		<line class="st9" x1="900.4" y1="853.72" x2="858.34" y2="990.98"/>
		<rect x="761.27" y="990.67" class="st9" width="277.81" height="14.03"/>
		<path class="st39" d="M1076.08,862.63c-168.14-6.3-233.94,125.81-236.15,128.05l41.5-132.58c0.78-2.8,3-4.68,5.49-4.64
			l185.54,3.03C1075.11,856.54,1076.95,859.65,1076.08,862.63z"/>
	</g>
	<g id="chat">
		<path class="st40" d="M311.32,786.36h-67.25c-4.74,0-8.58-3.84-8.58-8.58v-12.39c0-4.74,3.84-8.58,8.58-8.58h67.25
			c4.74,0,8.58,3.84,8.58,8.58v12.39C319.9,782.52,316.06,786.36,311.32,786.36z"/>
		<ellipse class="st1" cx="252.77" cy="784.89" rx="6.31" ry="6.63"/>
	</g>
</g>
</svg>
